<svg version="1.1" baseProfile="full" width="751.0" height="2336.0" viewBox="0 0 751 2336" xmlns="http://www.w3.org/2000/svg" xmlns:xlink="http://www.w3.org/1999/xlink" xmlns:ev="http://www.w3.org/2001/xml-events">
	<desc >#direction: right
	
	[IExpression] &lt;:-- [UnaryExpression]
	[IExpression] &lt;:-- [BinaryExpression]
	[IExpression] &lt;:-- [AssignmentExpression]
	[IExpression] &lt;:-- [ConstantExpression]
	[IExpression] &lt;:-- [GenericFunctionExpression]
	[IExpression] &lt;:-- [MemberAccessExpression]
	[IExpression] &lt;:-- [RewritableFunctionExpression]
	[IExpression] &lt;:-- [VariableExpression]
	
	[UnaryExpression] &lt;:- [LogicNegateExpression]
	[UnaryExpression] &lt;:- [NegateExpression]
	[UnaryExpression] &lt;:- [AbsExpression]
	[UnaryExpression] &lt;:- [AbsExpression]
	[UnaryExpression] &lt;:- [ArcCosExpression]
	[UnaryExpression] &lt;:- [ArcSinExpression]
	[UnaryExpression] &lt;:- [ArcTanExpression]
	[UnaryExpression] &lt;:- [CosExpression]
	[UnaryExpression] &lt;:- [LnExpression]
	[UnaryExpression] &lt;:- [SinExpression]
	[UnaryExpression] &lt;:- [TanExpression]
	
	[BinaryExpression] &lt;:- [AddExpression]
	[BinaryExpression] &lt;:- [AndExpression]
	[BinaryExpression] &lt;:- [DivideExpression]
	[BinaryExpression] &lt;:- [EqualsExpression]
	[BinaryExpression] &lt;:- [ExponentExpression]
	[BinaryExpression] &lt;:- [GreaterThanExpression]
	[BinaryExpression] &lt;:- [GreaterThanOrEqualExpression]
	[BinaryExpression] &lt;:- [LessThanExpression]
	[BinaryExpression] &lt;:- [LessThanOrEqualExpression]
	[BinaryExpression] &lt;:- [LogExpression]
	[BinaryExpression] &lt;:- [ModuloExpression]
	[BinaryExpression] &lt;:- [MultiplyExpression]
	[BinaryExpression] &lt;:- [ModuloExpression]
	[BinaryExpression] &lt;:- [NotEqualExpression]
	[BinaryExpression] &lt;:- [OrExpression]
	[BinaryExpression] &lt;:- [RootExpression]
	[BinaryExpression] &lt;:- [SubtractExpression]
	
	[RewritableFunctionExpression] &lt;:- [ArcCtgExpression]
	[RewritableFunctionExpression] &lt;:- [CtgExpression]
	[RewritableFunctionExpression] &lt;:- [DegExpression]
	[RewritableFunctionExpression] &lt;:- [DegToRadExpression]
	[RewritableFunctionExpression] &lt;:- [GradExpression]
	[RewritableFunctionExpression] &lt;:- [GradToRadExpression]</desc>
	<g stroke-width="1.0" text-align="left" font="12pt Helvetica, Arial, sans-serif" font-size="12pt" font-family="Helvetica" font-weight="bold" font-style="normal">
		<g font-family="Helvetica" font-size="12pt" font-weight="bold" font-style="normal" stroke-width="3.0" stroke-linejoin="round" stroke-linecap="round" stroke="#33322E">
			<g stroke="transparent" fill="transparent">
				<rect x="0.0" y="0.0" height="2336.0" width="751.0" stroke="none"></rect>
			</g>
			<g transform="translate(8, 8)" fill="#33322E">
				<g transform="translate(20, 20)" fill="#eee8d5" font-family="Helvetica" font-size="12pt" font-weight="normal" font-style="normal">
					<g stroke-dasharray="6 6">
						<path d="M54.6 1654.7 L126 312 L197.5 312 L197.5 312.0 " fill="none"></path>
					</g>
					<path d="M49.2 1654.4 L54.6 1654.7 L59.9 1655.0 L53.9 1668.0 Z"></path>
					<g stroke-dasharray="6 6">
						<path d="M58.8 1654.9 L126 1320 L195 1320 L195.0 1320.0 " fill="none"></path>
					</g>
					<path d="M53.6 1653.9 L58.8 1654.9 L64.1 1656.0 L56.2 1668.0 Z"></path>
					<g stroke-dasharray="6 6">
						<path d="M119.3 1687.6 L126 1688 L174.5 1688 L174.5 1688.0 " fill="none"></path>
					</g>
					<path d="M119.6 1682.3 L119.3 1687.6 L119.0 1693.0 L106.0 1686.9 Z"></path>
					<g stroke-dasharray="6 6">
						<path d="M77.6 1709.6 L126 1760 L185.5 1760 L185.5 1760.0 " fill="none"></path>
					</g>
					<path d="M81.5 1705.9 L77.6 1709.6 L73.8 1713.3 L68.4 1700.0 Z"></path>
					<g stroke-dasharray="6 6">
						<path d="M66.8 1712.0 L126 1832 L156.5 1832 L156.5 1832.0 " fill="none"></path>
					</g>
					<path d="M71.6 1709.6 L66.8 1712.0 L62.0 1714.3 L60.9 1700.0 Z"></path>
					<g stroke-dasharray="6 6">
						<path d="M62.5 1712.7 L126 1904 L161.5 1904 L161.5 1904.0 " fill="none"></path>
					</g>
					<path d="M67.6 1711.0 L62.5 1712.7 L57.4 1714.3 L58.3 1700.0 Z"></path>
					<g stroke-dasharray="6 6">
						<path d="M58.3 1713.1 L126 2084 L146 2084 L146.0 2084.0 " fill="none"></path>
					</g>
					<path d="M63.6 1712.2 L58.3 1713.1 L53.1 1714.1 L55.9 1700.0 Z"></path>
					<g stroke-dasharray="6 6">
						<path d="M57.5 1713.2 L126 2156 L189.5 2156 L189.5 2156.0 " fill="none"></path>
					</g>
					<path d="M62.8 1712.4 L57.5 1713.2 L52.2 1714.0 L55.5 1700.0 Z"></path>
					<path d="M284.7 284.0 L416 16 L466.5 16 L466.5 16.0 " fill="none"></path>
					<path d="M279.9 281.7 L284.7 284.0 L289.5 286.4 L278.8 296.0 Z"></path>
					<path d="M288.6 284.8 L416 88 L488 88 L488.0 88.0 " fill="none"></path>
					<path d="M284.1 281.9 L288.6 284.8 L293.1 287.7 L281.4 296.0 Z"></path>
					<path d="M293.5 285.9 L416 144 L499.5 152.93645484949832 L499.5 152.9 " fill="none"></path>
					<path d="M289.5 282.4 L293.5 285.9 L297.6 289.4 L284.8 296.0 Z"></path>
					<path d="M299.1 287.2 L416 184 L499.5 170.59531772575252 L499.5 170.6 " fill="none"></path>
					<path d="M295.6 283.2 L299.1 287.2 L302.7 291.2 L289.1 296.0 Z"></path>
					<path d="M315.2 290.1 L416 240 L486 240 L486.0 240.0 " fill="none"></path>
					<path d="M312.8 285.3 L315.2 290.1 L317.5 294.8 L303.2 296.0 Z"></path>
					<path d="M357.8 312.0 L416 312 L489 312 L489.0 312.0 " fill="none"></path>
					<path d="M357.8 306.7 L357.8 312.0 L357.8 317.3 L344.5 312.0 Z"></path>
					<path d="M315.2 333.9 L416 384 L487.5 384 L487.5 384.0 " fill="none"></path>
					<path d="M317.5 329.2 L315.2 333.9 L312.8 338.7 L303.2 328.0 Z"></path>
					<path d="M296.6 337.4 L416 456 L499.5 456 L499.5 456.0 " fill="none"></path>
					<path d="M300.3 333.6 L296.6 337.4 L292.8 341.2 L287.1 328.0 Z"></path>
					<path d="M289.2 339.1 L416 528 L504.5 528 L504.5 528.0 " fill="none"></path>
					<path d="M293.6 336.1 L289.2 339.1 L284.7 342.0 L281.7 328.0 Z"></path>
					<path d="M285.1 339.9 L416 600 L502 600 L502.0 600.0 " fill="none"></path>
					<path d="M289.8 337.5 L285.1 339.9 L280.3 342.3 L279.1 328.0 Z"></path>
					<path d="M282.4 340.4 L416 672 L501 672 L501.0 672.0 " fill="none"></path>
					<path d="M287.4 338.4 L282.4 340.4 L277.5 342.4 L277.4 328.0 Z"></path>
					<path d="M278.3 1291.1 L416 744 L499 744 L499.0 744.0 " fill="none"></path>
					<path d="M273.1 1289.8 L278.3 1291.1 L283.5 1292.4 L275.0 1304.0 Z"></path>
					<path d="M279.3 1291.2 L416 816 L499 816 L499.0 816.0 " fill="none"></path>
					<path d="M274.2 1289.7 L279.3 1291.2 L284.4 1292.7 L275.6 1304.0 Z"></path>
					<path d="M280.6 1291.4 L416 888 L490.5 888 L490.5 888.0 " fill="none"></path>
					<path d="M275.6 1289.7 L280.6 1291.4 L285.7 1293.1 L276.4 1304.0 Z"></path>
					<path d="M282.4 1291.6 L416 960 L488.5 960 L488.5 960.0 " fill="none"></path>
					<path d="M277.5 1289.6 L282.4 1291.6 L287.4 1293.6 L277.4 1304.0 Z"></path>
					<path d="M285.1 1292.1 L416 1032 L478 1032 L478.0 1032.0 " fill="none"></path>
					<path d="M280.3 1289.7 L285.1 1292.1 L289.8 1294.5 L279.1 1304.0 Z"></path>
					<path d="M289.2 1292.9 L416 1104 L467 1104 L467.0 1104.0 " fill="none"></path>
					<path d="M284.7 1290.0 L289.2 1292.9 L293.6 1295.9 L281.7 1304.0 Z"></path>
					<path d="M296.6 1294.6 L416 1176 L436 1176 L436.0 1176.0 " fill="none"></path>
					<path d="M292.8 1290.8 L296.6 1294.6 L300.3 1298.4 L287.1 1304.0 Z"></path>
					<path d="M315.2 1298.1 L416 1248 L477 1248 L477.0 1248.0 " fill="none"></path>
					<path d="M312.8 1293.3 L315.2 1298.1 L317.5 1302.8 L303.2 1304.0 Z"></path>
					<path d="M360.3 1320.0 L416 1320 L446 1320 L446.0 1320.0 " fill="none"></path>
					<path d="M360.3 1314.7 L360.3 1320.0 L360.3 1325.3 L347.0 1320.0 Z"></path>
					<path d="M315.2 1341.9 L416 1392 L500 1392 L500.0 1392.0 " fill="none"></path>
					<path d="M317.5 1337.2 L315.2 1341.9 L312.8 1346.7 L303.2 1336.0 Z"></path>
					<path d="M299.1 1344.8 L416 1448 L486 1455.4916387959865 L486.0 1455.5 " fill="none"></path>
					<path d="M302.7 1340.8 L299.1 1344.8 L295.6 1348.8 L289.1 1336.0 Z"></path>
					<path d="M288.6 1347.2 L416 1544 L484.5 1544 L484.5 1544.0 " fill="none"></path>
					<path d="M293.1 1344.3 L288.6 1347.2 L284.1 1350.1 L281.4 1336.0 Z"></path>
					<path d="M293.5 1346.1 L416 1488 L486 1476.7625418060202 L486.0 1476.8 " fill="none"></path>
					<path d="M297.6 1342.6 L293.5 1346.1 L289.5 1349.6 L284.8 1336.0 Z"></path>
					<path d="M284.7 1348.0 L416 1616 L479.5 1616 L479.5 1616.0 " fill="none"></path>
					<path d="M289.5 1345.6 L284.7 1348.0 L279.9 1350.3 L278.8 1336.0 Z"></path>
					<path d="M282.2 1348.4 L416 1688 L505 1688 L505.0 1688.0 " fill="none"></path>
					<path d="M287.2 1346.4 L282.2 1348.4 L277.2 1350.4 L277.3 1336.0 Z"></path>
					<path d="M280.4 1348.7 L416 1760 L496.5 1760 L496.5 1760.0 " fill="none"></path>
					<path d="M285.5 1347.0 L280.4 1348.7 L275.4 1350.3 L276.3 1336.0 Z"></path>
					<path d="M279.2 1348.8 L416 1832 L482 1832 L482.0 1832.0 " fill="none"></path>
					<path d="M284.3 1347.4 L279.2 1348.8 L274.0 1350.3 L275.5 1336.0 Z"></path>
					<path d="M292.3 2057.6 L416 1904 L488 1904 L488.0 1904.0 " fill="none"></path>
					<path d="M288.1 2054.3 L292.3 2057.6 L296.4 2061.0 L283.9 2068.0 Z"></path>
					<path d="M303.2 2060.0 L416 1976 L501 1976 L501.0 1976.0 " fill="none"></path>
					<path d="M300.0 2055.8 L303.2 2060.0 L306.4 2064.3 L292.5 2068.0 Z"></path>
					<path d="M348.4 2064.8 L416 2048 L499.5 2048 L499.5 2048.0 " fill="none"></path>
					<path d="M347.1 2059.6 L348.4 2064.8 L349.7 2070.0 L335.4 2068.0 Z"></path>
					<path d="M348.4 2103.2 L416 2120 L475 2120 L475.0 2120.0 " fill="none"></path>
					<path d="M349.7 2098.0 L348.4 2103.2 L347.1 2108.4 L335.4 2100.0 Z"></path>
					<path d="M303.2 2108.0 L416 2192 L496 2192 L496.0 2192.0 " fill="none"></path>
					<path d="M306.4 2103.7 L303.2 2108.0 L300.0 2112.2 L292.5 2100.0 Z"></path>
					<path d="M292.3 2110.4 L416 2264 L471.5 2264 L471.5 2264.0 " fill="none"></path>
					<path d="M296.4 2107.0 L292.3 2110.4 L288.1 2113.7 L283.9 2100.0 Z"></path>
					<g data-name="IExpression">
						<g fill="#eee8d5" stroke="#33322E" data-name="IExpression">
							<rect x="0.0" y="1668.0" height="32.0" width="106.0" data-name="IExpression"></rect>
						</g>
						<g transform="translate(0, 1668)" font-family="Helvetica" font-size="12pt" font-weight="bold" font-style="normal" data-name="IExpression" data-compartment="0">
							<g transform="translate(8, 8)" fill="#33322E" text-align="center" data-name="IExpression" data-compartment="0">
								<text x="45.0" y="14.1" stroke="none" text-anchor="middle" data-name="IExpression" data-compartment="0">IExpression</text>
								
							</g>
						</g>
					</g>
					<g data-name="UnaryExpression">
						<g fill="#eee8d5" stroke="#33322E" data-name="UnaryExpression">
							<rect x="197.5" y="296.0" height="32.0" width="147.0" data-name="UnaryExpression"></rect>
						</g>
						<g transform="translate(197.5, 296)" font-family="Helvetica" font-size="12pt" font-weight="bold" font-style="normal" data-name="UnaryExpression" data-compartment="0">
							<g transform="translate(8, 8)" fill="#33322E" text-align="center" data-name="UnaryExpression" data-compartment="0">
								<text x="65.5" y="14.1" stroke="none" text-anchor="middle" data-name="UnaryExpression" data-compartment="0">UnaryExpression</text>
								
							</g>
						</g>
					</g>
					<g data-name="BinaryExpression">
						<g fill="#eee8d5" stroke="#33322E" data-name="BinaryExpression">
							<rect x="195.0" y="1304.0" height="32.0" width="152.0" data-name="BinaryExpression"></rect>
						</g>
						<g transform="translate(195, 1304)" font-family="Helvetica" font-size="12pt" font-weight="bold" font-style="normal" data-name="BinaryExpression" data-compartment="0">
							<g transform="translate(8, 8)" fill="#33322E" text-align="center" data-name="BinaryExpression" data-compartment="0">
								<text x="68.0" y="14.1" stroke="none" text-anchor="middle" data-name="BinaryExpression" data-compartment="0">BinaryExpression</text>
								
							</g>
						</g>
					</g>
					<g data-name="AssignmentExpression">
						<g fill="#eee8d5" stroke="#33322E" data-name="AssignmentExpression">
							<rect x="174.5" y="1672.0" height="32.0" width="193.0" data-name="AssignmentExpression"></rect>
						</g>
						<g transform="translate(174.5, 1672)" font-family="Helvetica" font-size="12pt" font-weight="bold" font-style="normal" data-name="AssignmentExpression" data-compartment="0">
							<g transform="translate(8, 8)" fill="#33322E" text-align="center" data-name="AssignmentExpression" data-compartment="0">
								<text x="88.5" y="14.1" stroke="none" text-anchor="middle" data-name="AssignmentExpression" data-compartment="0">AssignmentExpression</text>
								
							</g>
						</g>
					</g>
					<g data-name="ConstantExpression">
						<g fill="#eee8d5" stroke="#33322E" data-name="ConstantExpression">
							<rect x="185.5" y="1744.0" height="32.0" width="171.0" data-name="ConstantExpression"></rect>
						</g>
						<g transform="translate(185.5, 1744)" font-family="Helvetica" font-size="12pt" font-weight="bold" font-style="normal" data-name="ConstantExpression" data-compartment="0">
							<g transform="translate(8, 8)" fill="#33322E" text-align="center" data-name="ConstantExpression" data-compartment="0">
								<text x="77.5" y="14.1" stroke="none" text-anchor="middle" data-name="ConstantExpression" data-compartment="0">ConstantExpression</text>
								
							</g>
						</g>
					</g>
					<g data-name="GenericFunctionExpression">
						<g fill="#eee8d5" stroke="#33322E" data-name="GenericFunctionExpression">
							<rect x="156.5" y="1816.0" height="32.0" width="229.0" data-name="GenericFunctionExpression"></rect>
						</g>
						<g transform="translate(156.5, 1816)" font-family="Helvetica" font-size="12pt" font-weight="bold" font-style="normal" data-name="GenericFunctionExpression" data-compartment="0">
							<g transform="translate(8, 8)" fill="#33322E" text-align="center" data-name="GenericFunctionExpression" data-compartment="0">
								<text x="106.5" y="14.1" stroke="none" text-anchor="middle" data-name="GenericFunctionExpression" data-compartment="0">GenericFunctionExpression</text>
								
							</g>
						</g>
					</g>
					<g data-name="MemberAccessExpression">
						<g fill="#eee8d5" stroke="#33322E" data-name="MemberAccessExpression">
							<rect x="161.5" y="1888.0" height="32.0" width="219.0" data-name="MemberAccessExpression"></rect>
						</g>
						<g transform="translate(161.5, 1888)" font-family="Helvetica" font-size="12pt" font-weight="bold" font-style="normal" data-name="MemberAccessExpression" data-compartment="0">
							<g transform="translate(8, 8)" fill="#33322E" text-align="center" data-name="MemberAccessExpression" data-compartment="0">
								<text x="101.5" y="14.1" stroke="none" text-anchor="middle" data-name="MemberAccessExpression" data-compartment="0">MemberAccessExpression</text>
								
							</g>
						</g>
					</g>
					<g data-name="RewritableFunctionExpression">
						<g fill="#eee8d5" stroke="#33322E" data-name="RewritableFunctionExpression">
							<rect x="146.0" y="2068.0" height="32.0" width="250.0" data-name="RewritableFunctionExpression"></rect>
						</g>
						<g transform="translate(146, 2068)" font-family="Helvetica" font-size="12pt" font-weight="bold" font-style="normal" data-name="RewritableFunctionExpression" data-compartment="0">
							<g transform="translate(8, 8)" fill="#33322E" text-align="center" data-name="RewritableFunctionExpression" data-compartment="0">
								<text x="117.0" y="14.1" stroke="none" text-anchor="middle" data-name="RewritableFunctionExpression" data-compartment="0">RewritableFunctionExpression</text>
								
							</g>
						</g>
					</g>
					<g data-name="VariableExpression">
						<g fill="#eee8d5" stroke="#33322E" data-name="VariableExpression">
							<rect x="189.5" y="2140.0" height="32.0" width="163.0" data-name="VariableExpression"></rect>
						</g>
						<g transform="translate(189.5, 2140)" font-family="Helvetica" font-size="12pt" font-weight="bold" font-style="normal" data-name="VariableExpression" data-compartment="0">
							<g transform="translate(8, 8)" fill="#33322E" text-align="center" data-name="VariableExpression" data-compartment="0">
								<text x="73.5" y="14.1" stroke="none" text-anchor="middle" data-name="VariableExpression" data-compartment="0">VariableExpression</text>
								
							</g>
						</g>
					</g>
					<g data-name="LogicNegateExpression">
						<g fill="#eee8d5" stroke="#33322E" data-name="LogicNegateExpression">
							<rect x="466.5" y="0.0" height="32.0" width="198.0" data-name="LogicNegateExpression"></rect>
						</g>
						<g transform="translate(466.5, 0)" font-family="Helvetica" font-size="12pt" font-weight="bold" font-style="normal" data-name="LogicNegateExpression" data-compartment="0">
							<g transform="translate(8, 8)" fill="#33322E" text-align="center" data-name="LogicNegateExpression" data-compartment="0">
								<text x="91.0" y="14.1" stroke="none" text-anchor="middle" data-name="LogicNegateExpression" data-compartment="0">LogicNegateExpression</text>
								
							</g>
						</g>
					</g>
					<g data-name="NegateExpression">
						<g fill="#eee8d5" stroke="#33322E" data-name="NegateExpression">
							<rect x="488.0" y="72.0" height="32.0" width="155.0" data-name="NegateExpression"></rect>
						</g>
						<g transform="translate(488, 72)" font-family="Helvetica" font-size="12pt" font-weight="bold" font-style="normal" data-name="NegateExpression" data-compartment="0">
							<g transform="translate(8, 8)" fill="#33322E" text-align="center" data-name="NegateExpression" data-compartment="0">
								<text x="69.5" y="14.1" stroke="none" text-anchor="middle" data-name="NegateExpression" data-compartment="0">NegateExpression</text>
								
							</g>
						</g>
					</g>
					<g data-name="AbsExpression">
						<g fill="#eee8d5" stroke="#33322E" data-name="AbsExpression">
							<rect x="499.5" y="144.0" height="32.0" width="132.0" data-name="AbsExpression"></rect>
						</g>
						<g transform="translate(499.5, 144)" font-family="Helvetica" font-size="12pt" font-weight="bold" font-style="normal" data-name="AbsExpression" data-compartment="0">
							<g transform="translate(8, 8)" fill="#33322E" text-align="center" data-name="AbsExpression" data-compartment="0">
								<text x="58.0" y="14.1" stroke="none" text-anchor="middle" data-name="AbsExpression" data-compartment="0">AbsExpression</text>
								
							</g>
						</g>
					</g>
					<g data-name="ArcCosExpression">
						<g fill="#eee8d5" stroke="#33322E" data-name="ArcCosExpression">
							<rect x="486.0" y="224.0" height="32.0" width="159.0" data-name="ArcCosExpression"></rect>
						</g>
						<g transform="translate(486, 224)" font-family="Helvetica" font-size="12pt" font-weight="bold" font-style="normal" data-name="ArcCosExpression" data-compartment="0">
							<g transform="translate(8, 8)" fill="#33322E" text-align="center" data-name="ArcCosExpression" data-compartment="0">
								<text x="71.5" y="14.1" stroke="none" text-anchor="middle" data-name="ArcCosExpression" data-compartment="0">ArcCosExpression</text>
								
							</g>
						</g>
					</g>
					<g data-name="ArcSinExpression">
						<g fill="#eee8d5" stroke="#33322E" data-name="ArcSinExpression">
							<rect x="489.0" y="296.0" height="32.0" width="153.0" data-name="ArcSinExpression"></rect>
						</g>
						<g transform="translate(489, 296)" font-family="Helvetica" font-size="12pt" font-weight="bold" font-style="normal" data-name="ArcSinExpression" data-compartment="0">
							<g transform="translate(8, 8)" fill="#33322E" text-align="center" data-name="ArcSinExpression" data-compartment="0">
								<text x="68.5" y="14.1" stroke="none" text-anchor="middle" data-name="ArcSinExpression" data-compartment="0">ArcSinExpression</text>
								
							</g>
						</g>
					</g>
					<g data-name="ArcTanExpression">
						<g fill="#eee8d5" stroke="#33322E" data-name="ArcTanExpression">
							<rect x="487.5" y="368.0" height="32.0" width="156.0" data-name="ArcTanExpression"></rect>
						</g>
						<g transform="translate(487.5, 368)" font-family="Helvetica" font-size="12pt" font-weight="bold" font-style="normal" data-name="ArcTanExpression" data-compartment="0">
							<g transform="translate(8, 8)" fill="#33322E" text-align="center" data-name="ArcTanExpression" data-compartment="0">
								<text x="70.0" y="14.1" stroke="none" text-anchor="middle" data-name="ArcTanExpression" data-compartment="0">ArcTanExpression</text>
								
							</g>
						</g>
					</g>
					<g data-name="CosExpression">
						<g fill="#eee8d5" stroke="#33322E" data-name="CosExpression">
							<rect x="499.5" y="440.0" height="32.0" width="132.0" data-name="CosExpression"></rect>
						</g>
						<g transform="translate(499.5, 440)" font-family="Helvetica" font-size="12pt" font-weight="bold" font-style="normal" data-name="CosExpression" data-compartment="0">
							<g transform="translate(8, 8)" fill="#33322E" text-align="center" data-name="CosExpression" data-compartment="0">
								<text x="58.0" y="14.1" stroke="none" text-anchor="middle" data-name="CosExpression" data-compartment="0">CosExpression</text>
								
							</g>
						</g>
					</g>
					<g data-name="LnExpression">
						<g fill="#eee8d5" stroke="#33322E" data-name="LnExpression">
							<rect x="504.5" y="512.0" height="32.0" width="122.0" data-name="LnExpression"></rect>
						</g>
						<g transform="translate(504.5, 512)" font-family="Helvetica" font-size="12pt" font-weight="bold" font-style="normal" data-name="LnExpression" data-compartment="0">
							<g transform="translate(8, 8)" fill="#33322E" text-align="center" data-name="LnExpression" data-compartment="0">
								<text x="53.0" y="14.1" stroke="none" text-anchor="middle" data-name="LnExpression" data-compartment="0">LnExpression</text>
								
							</g>
						</g>
					</g>
					<g data-name="SinExpression">
						<g fill="#eee8d5" stroke="#33322E" data-name="SinExpression">
							<rect x="502.0" y="584.0" height="32.0" width="127.0" data-name="SinExpression"></rect>
						</g>
						<g transform="translate(502, 584)" font-family="Helvetica" font-size="12pt" font-weight="bold" font-style="normal" data-name="SinExpression" data-compartment="0">
							<g transform="translate(8, 8)" fill="#33322E" text-align="center" data-name="SinExpression" data-compartment="0">
								<text x="55.5" y="14.1" stroke="none" text-anchor="middle" data-name="SinExpression" data-compartment="0">SinExpression</text>
								
							</g>
						</g>
					</g>
					<g data-name="TanExpression">
						<g fill="#eee8d5" stroke="#33322E" data-name="TanExpression">
							<rect x="501.0" y="656.0" height="32.0" width="129.0" data-name="TanExpression"></rect>
						</g>
						<g transform="translate(501, 656)" font-family="Helvetica" font-size="12pt" font-weight="bold" font-style="normal" data-name="TanExpression" data-compartment="0">
							<g transform="translate(8, 8)" fill="#33322E" text-align="center" data-name="TanExpression" data-compartment="0">
								<text x="56.5" y="14.1" stroke="none" text-anchor="middle" data-name="TanExpression" data-compartment="0">TanExpression</text>
								
							</g>
						</g>
					</g>
					<g data-name="AddExpression">
						<g fill="#eee8d5" stroke="#33322E" data-name="AddExpression">
							<rect x="499.0" y="728.0" height="32.0" width="133.0" data-name="AddExpression"></rect>
						</g>
						<g transform="translate(499, 728)" font-family="Helvetica" font-size="12pt" font-weight="bold" font-style="normal" data-name="AddExpression" data-compartment="0">
							<g transform="translate(8, 8)" fill="#33322E" text-align="center" data-name="AddExpression" data-compartment="0">
								<text x="58.5" y="14.1" stroke="none" text-anchor="middle" data-name="AddExpression" data-compartment="0">AddExpression</text>
								
							</g>
						</g>
					</g>
					<g data-name="AndExpression">
						<g fill="#eee8d5" stroke="#33322E" data-name="AndExpression">
							<rect x="499.0" y="800.0" height="32.0" width="133.0" data-name="AndExpression"></rect>
						</g>
						<g transform="translate(499, 800)" font-family="Helvetica" font-size="12pt" font-weight="bold" font-style="normal" data-name="AndExpression" data-compartment="0">
							<g transform="translate(8, 8)" fill="#33322E" text-align="center" data-name="AndExpression" data-compartment="0">
								<text x="58.5" y="14.1" stroke="none" text-anchor="middle" data-name="AndExpression" data-compartment="0">AndExpression</text>
								
							</g>
						</g>
					</g>
					<g data-name="DivideExpression">
						<g fill="#eee8d5" stroke="#33322E" data-name="DivideExpression">
							<rect x="490.5" y="872.0" height="32.0" width="150.0" data-name="DivideExpression"></rect>
						</g>
						<g transform="translate(490.5, 872)" font-family="Helvetica" font-size="12pt" font-weight="bold" font-style="normal" data-name="DivideExpression" data-compartment="0">
							<g transform="translate(8, 8)" fill="#33322E" text-align="center" data-name="DivideExpression" data-compartment="0">
								<text x="67.0" y="14.1" stroke="none" text-anchor="middle" data-name="DivideExpression" data-compartment="0">DivideExpression</text>
								
							</g>
						</g>
					</g>
					<g data-name="EqualsExpression">
						<g fill="#eee8d5" stroke="#33322E" data-name="EqualsExpression">
							<rect x="488.5" y="944.0" height="32.0" width="154.0" data-name="EqualsExpression"></rect>
						</g>
						<g transform="translate(488.5, 944)" font-family="Helvetica" font-size="12pt" font-weight="bold" font-style="normal" data-name="EqualsExpression" data-compartment="0">
							<g transform="translate(8, 8)" fill="#33322E" text-align="center" data-name="EqualsExpression" data-compartment="0">
								<text x="69.0" y="14.1" stroke="none" text-anchor="middle" data-name="EqualsExpression" data-compartment="0">EqualsExpression</text>
								
							</g>
						</g>
					</g>
					<g data-name="ExponentExpression">
						<g fill="#eee8d5" stroke="#33322E" data-name="ExponentExpression">
							<rect x="478.0" y="1016.0" height="32.0" width="175.0" data-name="ExponentExpression"></rect>
						</g>
						<g transform="translate(478, 1016)" font-family="Helvetica" font-size="12pt" font-weight="bold" font-style="normal" data-name="ExponentExpression" data-compartment="0">
							<g transform="translate(8, 8)" fill="#33322E" text-align="center" data-name="ExponentExpression" data-compartment="0">
								<text x="79.5" y="14.1" stroke="none" text-anchor="middle" data-name="ExponentExpression" data-compartment="0">ExponentExpression</text>
								
							</g>
						</g>
					</g>
					<g data-name="GreaterThanExpression">
						<g fill="#eee8d5" stroke="#33322E" data-name="GreaterThanExpression">
							<rect x="467.0" y="1088.0" height="32.0" width="197.0" data-name="GreaterThanExpression"></rect>
						</g>
						<g transform="translate(467, 1088)" font-family="Helvetica" font-size="12pt" font-weight="bold" font-style="normal" data-name="GreaterThanExpression" data-compartment="0">
							<g transform="translate(8, 8)" fill="#33322E" text-align="center" data-name="GreaterThanExpression" data-compartment="0">
								<text x="90.5" y="14.1" stroke="none" text-anchor="middle" data-name="GreaterThanExpression" data-compartment="0">GreaterThanExpression</text>
								
							</g>
						</g>
					</g>
					<g data-name="GreaterThanOrEqualExpression">
						<g fill="#eee8d5" stroke="#33322E" data-name="GreaterThanOrEqualExpression">
							<rect x="436.0" y="1160.0" height="32.0" width="259.0" data-name="GreaterThanOrEqualExpression"></rect>
						</g>
						<g transform="translate(436, 1160)" font-family="Helvetica" font-size="12pt" font-weight="bold" font-style="normal" data-name="GreaterThanOrEqualExpression" data-compartment="0">
							<g transform="translate(8, 8)" fill="#33322E" text-align="center" data-name="GreaterThanOrEqualExpression" data-compartment="0">
								<text x="121.5" y="14.1" stroke="none" text-anchor="middle" data-name="GreaterThanOrEqualExpression" data-compartment="0">GreaterThanOrEqualExpression</text>
								
							</g>
						</g>
					</g>
					<g data-name="LessThanExpression">
						<g fill="#eee8d5" stroke="#33322E" data-name="LessThanExpression">
							<rect x="477.0" y="1232.0" height="32.0" width="177.0" data-name="LessThanExpression"></rect>
						</g>
						<g transform="translate(477, 1232)" font-family="Helvetica" font-size="12pt" font-weight="bold" font-style="normal" data-name="LessThanExpression" data-compartment="0">
							<g transform="translate(8, 8)" fill="#33322E" text-align="center" data-name="LessThanExpression" data-compartment="0">
								<text x="80.5" y="14.1" stroke="none" text-anchor="middle" data-name="LessThanExpression" data-compartment="0">LessThanExpression</text>
								
							</g>
						</g>
					</g>
					<g data-name="LessThanOrEqualExpression">
						<g fill="#eee8d5" stroke="#33322E" data-name="LessThanOrEqualExpression">
							<rect x="446.0" y="1304.0" height="32.0" width="239.0" data-name="LessThanOrEqualExpression"></rect>
						</g>
						<g transform="translate(446, 1304)" font-family="Helvetica" font-size="12pt" font-weight="bold" font-style="normal" data-name="LessThanOrEqualExpression" data-compartment="0">
							<g transform="translate(8, 8)" fill="#33322E" text-align="center" data-name="LessThanOrEqualExpression" data-compartment="0">
								<text x="111.5" y="14.1" stroke="none" text-anchor="middle" data-name="LessThanOrEqualExpression" data-compartment="0">LessThanOrEqualExpression</text>
								
							</g>
						</g>
					</g>
					<g data-name="LogExpression">
						<g fill="#eee8d5" stroke="#33322E" data-name="LogExpression">
							<rect x="500.0" y="1376.0" height="32.0" width="131.0" data-name="LogExpression"></rect>
						</g>
						<g transform="translate(500, 1376)" font-family="Helvetica" font-size="12pt" font-weight="bold" font-style="normal" data-name="LogExpression" data-compartment="0">
							<g transform="translate(8, 8)" fill="#33322E" text-align="center" data-name="LogExpression" data-compartment="0">
								<text x="57.5" y="14.1" stroke="none" text-anchor="middle" data-name="LogExpression" data-compartment="0">LogExpression</text>
								
							</g>
						</g>
					</g>
					<g data-name="ModuloExpression">
						<g fill="#eee8d5" stroke="#33322E" data-name="ModuloExpression">
							<rect x="486.0" y="1448.0" height="32.0" width="159.0" data-name="ModuloExpression"></rect>
						</g>
						<g transform="translate(486, 1448)" font-family="Helvetica" font-size="12pt" font-weight="bold" font-style="normal" data-name="ModuloExpression" data-compartment="0">
							<g transform="translate(8, 8)" fill="#33322E" text-align="center" data-name="ModuloExpression" data-compartment="0">
								<text x="71.5" y="14.1" stroke="none" text-anchor="middle" data-name="ModuloExpression" data-compartment="0">ModuloExpression</text>
								
							</g>
						</g>
					</g>
					<g data-name="MultiplyExpression">
						<g fill="#eee8d5" stroke="#33322E" data-name="MultiplyExpression">
							<rect x="484.5" y="1528.0" height="32.0" width="162.0" data-name="MultiplyExpression"></rect>
						</g>
						<g transform="translate(484.5, 1528)" font-family="Helvetica" font-size="12pt" font-weight="bold" font-style="normal" data-name="MultiplyExpression" data-compartment="0">
							<g transform="translate(8, 8)" fill="#33322E" text-align="center" data-name="MultiplyExpression" data-compartment="0">
								<text x="73.0" y="14.1" stroke="none" text-anchor="middle" data-name="MultiplyExpression" data-compartment="0">MultiplyExpression</text>
								
							</g>
						</g>
					</g>
					<g data-name="NotEqualExpression">
						<g fill="#eee8d5" stroke="#33322E" data-name="NotEqualExpression">
							<rect x="479.5" y="1600.0" height="32.0" width="172.0" data-name="NotEqualExpression"></rect>
						</g>
						<g transform="translate(479.5, 1600)" font-family="Helvetica" font-size="12pt" font-weight="bold" font-style="normal" data-name="NotEqualExpression" data-compartment="0">
							<g transform="translate(8, 8)" fill="#33322E" text-align="center" data-name="NotEqualExpression" data-compartment="0">
								<text x="78.0" y="14.1" stroke="none" text-anchor="middle" data-name="NotEqualExpression" data-compartment="0">NotEqualExpression</text>
								
							</g>
						</g>
					</g>
					<g data-name="OrExpression">
						<g fill="#eee8d5" stroke="#33322E" data-name="OrExpression">
							<rect x="505.0" y="1672.0" height="32.0" width="121.0" data-name="OrExpression"></rect>
						</g>
						<g transform="translate(505, 1672)" font-family="Helvetica" font-size="12pt" font-weight="bold" font-style="normal" data-name="OrExpression" data-compartment="0">
							<g transform="translate(8, 8)" fill="#33322E" text-align="center" data-name="OrExpression" data-compartment="0">
								<text x="52.5" y="14.1" stroke="none" text-anchor="middle" data-name="OrExpression" data-compartment="0">OrExpression</text>
								
							</g>
						</g>
					</g>
					<g data-name="RootExpression">
						<g fill="#eee8d5" stroke="#33322E" data-name="RootExpression">
							<rect x="496.5" y="1744.0" height="32.0" width="138.0" data-name="RootExpression"></rect>
						</g>
						<g transform="translate(496.5, 1744)" font-family="Helvetica" font-size="12pt" font-weight="bold" font-style="normal" data-name="RootExpression" data-compartment="0">
							<g transform="translate(8, 8)" fill="#33322E" text-align="center" data-name="RootExpression" data-compartment="0">
								<text x="61.0" y="14.1" stroke="none" text-anchor="middle" data-name="RootExpression" data-compartment="0">RootExpression</text>
								
							</g>
						</g>
					</g>
					<g data-name="SubtractExpression">
						<g fill="#eee8d5" stroke="#33322E" data-name="SubtractExpression">
							<rect x="482.0" y="1816.0" height="32.0" width="167.0" data-name="SubtractExpression"></rect>
						</g>
						<g transform="translate(482, 1816)" font-family="Helvetica" font-size="12pt" font-weight="bold" font-style="normal" data-name="SubtractExpression" data-compartment="0">
							<g transform="translate(8, 8)" fill="#33322E" text-align="center" data-name="SubtractExpression" data-compartment="0">
								<text x="75.5" y="14.1" stroke="none" text-anchor="middle" data-name="SubtractExpression" data-compartment="0">SubtractExpression</text>
								
							</g>
						</g>
					</g>
					<g data-name="ArcCtgExpression">
						<g fill="#eee8d5" stroke="#33322E" data-name="ArcCtgExpression">
							<rect x="488.0" y="1888.0" height="32.0" width="155.0" data-name="ArcCtgExpression"></rect>
						</g>
						<g transform="translate(488, 1888)" font-family="Helvetica" font-size="12pt" font-weight="bold" font-style="normal" data-name="ArcCtgExpression" data-compartment="0">
							<g transform="translate(8, 8)" fill="#33322E" text-align="center" data-name="ArcCtgExpression" data-compartment="0">
								<text x="69.5" y="14.1" stroke="none" text-anchor="middle" data-name="ArcCtgExpression" data-compartment="0">ArcCtgExpression</text>
								
							</g>
						</g>
					</g>
					<g data-name="CtgExpression">
						<g fill="#eee8d5" stroke="#33322E" data-name="CtgExpression">
							<rect x="501.0" y="1960.0" height="32.0" width="129.0" data-name="CtgExpression"></rect>
						</g>
						<g transform="translate(501, 1960)" font-family="Helvetica" font-size="12pt" font-weight="bold" font-style="normal" data-name="CtgExpression" data-compartment="0">
							<g transform="translate(8, 8)" fill="#33322E" text-align="center" data-name="CtgExpression" data-compartment="0">
								<text x="56.5" y="14.1" stroke="none" text-anchor="middle" data-name="CtgExpression" data-compartment="0">CtgExpression</text>
								
							</g>
						</g>
					</g>
					<g data-name="DegExpression">
						<g fill="#eee8d5" stroke="#33322E" data-name="DegExpression">
							<rect x="499.5" y="2032.0" height="32.0" width="132.0" data-name="DegExpression"></rect>
						</g>
						<g transform="translate(499.5, 2032)" font-family="Helvetica" font-size="12pt" font-weight="bold" font-style="normal" data-name="DegExpression" data-compartment="0">
							<g transform="translate(8, 8)" fill="#33322E" text-align="center" data-name="DegExpression" data-compartment="0">
								<text x="58.0" y="14.1" stroke="none" text-anchor="middle" data-name="DegExpression" data-compartment="0">DegExpression</text>
								
							</g>
						</g>
					</g>
					<g data-name="DegToRadExpression">
						<g fill="#eee8d5" stroke="#33322E" data-name="DegToRadExpression">
							<rect x="475.0" y="2104.0" height="32.0" width="181.0" data-name="DegToRadExpression"></rect>
						</g>
						<g transform="translate(475, 2104)" font-family="Helvetica" font-size="12pt" font-weight="bold" font-style="normal" data-name="DegToRadExpression" data-compartment="0">
							<g transform="translate(8, 8)" fill="#33322E" text-align="center" data-name="DegToRadExpression" data-compartment="0">
								<text x="82.5" y="14.1" stroke="none" text-anchor="middle" data-name="DegToRadExpression" data-compartment="0">DegToRadExpression</text>
								
							</g>
						</g>
					</g>
					<g data-name="GradExpression">
						<g fill="#eee8d5" stroke="#33322E" data-name="GradExpression">
							<rect x="496.0" y="2176.0" height="32.0" width="139.0" data-name="GradExpression"></rect>
						</g>
						<g transform="translate(496, 2176)" font-family="Helvetica" font-size="12pt" font-weight="bold" font-style="normal" data-name="GradExpression" data-compartment="0">
							<g transform="translate(8, 8)" fill="#33322E" text-align="center" data-name="GradExpression" data-compartment="0">
								<text x="61.5" y="14.1" stroke="none" text-anchor="middle" data-name="GradExpression" data-compartment="0">GradExpression</text>
								
							</g>
						</g>
					</g>
					<g data-name="GradToRadExpression">
						<g fill="#eee8d5" stroke="#33322E" data-name="GradToRadExpression">
							<rect x="471.5" y="2248.0" height="32.0" width="188.0" data-name="GradToRadExpression"></rect>
						</g>
						<g transform="translate(471.5, 2248)" font-family="Helvetica" font-size="12pt" font-weight="bold" font-style="normal" data-name="GradToRadExpression" data-compartment="0">
							<g transform="translate(8, 8)" fill="#33322E" text-align="center" data-name="GradToRadExpression" data-compartment="0">
								<text x="86.0" y="14.1" stroke="none" text-anchor="middle" data-name="GradToRadExpression" data-compartment="0">GradToRadExpression</text>
								
							</g>
						</g>
					</g>
				</g>
			</g>
		</g>
	</g>
</svg>